<svg width="560" height="160" viewBox="0 0 560 160" fill="none" xmlns="http://www.w3.org/2000/svg">
  <!-- Emblem: qızılı tərəzi -->
  <g transform="translate(20,20)">
    <circle cx="60" cy="60" r="58" fill="#fffdf5" stroke="#e0a92e" stroke-width="3.5"/>
    <circle cx="60" cy="60" r="50" fill="none" stroke="#e0a92e" stroke-width="1" opacity="0.5"/>
    <polygon points="60,24 63,31 70,31 64.5,36 66.5,43 60,39 53.5,43 55.5,36 50,31 57,31" fill="#b8860b"/>
    <line x1="60" y1="42" x2="60" y2="90" stroke="#b8860b" stroke-width="3.5" stroke-linecap="round"/>
    <line x1="32" y1="48" x2="88" y2="48" stroke="#c9962a" stroke-width="4" stroke-linecap="round"/>
    <circle cx="60" cy="48" r="4" fill="#b8860b"/>
    <line x1="32" y1="48" x2="32" y2="62" stroke="#c9962a" stroke-width="1.5"/>
    <line x1="88" y1="48" x2="88" y2="62" stroke="#c9962a" stroke-width="1.5"/>
    <path d="M20 62 A12 12 0 0 0 44 62 Z" fill="#e0a92e" stroke="#b8860b" stroke-width="1"/>
    <path d="M76 62 A12 12 0 0 0 100 62 Z" fill="#e0a92e" stroke="#b8860b" stroke-width="1"/>
    <polygon points="48,90 72,90 78,98 42,98" fill="#b8860b"/>
    <rect x="38" y="98" width="44" height="5" rx="2.5" fill="#c9962a"/>
  </g>

  <!-- Söz-marka -->
  <text x="158" y="74" font-family="'Segoe UI', Arial, sans-serif" font-size="48" font-weight="800" fill="#c9962a" letter-spacing="1">MMU-İSP</text>
  <rect x="160" y="88" width="252" height="2.5" fill="#e0a92e"/>
  <text x="160" y="111" font-family="'Segoe UI', Arial, sans-serif" font-size="16" font-weight="600" fill="#b8860b">İxtisas seçimi proqramı</text>
  <text x="160" y="132" font-family="'Segoe UI', Arial, sans-serif" font-size="12.5" font-weight="400" fill="#8a909c">Milli Müdafiə Universiteti</text>
</svg>
